<svg xmlns="http://www.w3.org/2000/svg" viewBox="0 0 100 100" preserveAspectRatio="xMidYMid" width="200" height="200" style="shape-rendering: auto; display: block; background: transparent;" xmlns:xlink="http://www.w3.org/1999/xlink"><g><g transform="rotate(0 50 50)">
  <rect fill="#d7d7d7" height="22" width="7" ry="3.3000000000000003" rx="3.3000000000000003" y="17" x="46.5">
    <animate repeatCount="indefinite" begin="-0.7543103448275861s" dur="0.8620689655172413s" keyTimes="0;1" values="1;0" attributeName="opacity"></animate>
  </rect>
</g><g transform="rotate(45 50 50)">
  <rect fill="#d7d7d7" height="22" width="7" ry="3.3000000000000003" rx="3.3000000000000003" y="17" x="46.5">
    <animate repeatCount="indefinite" begin="-0.6465517241379309s" dur="0.8620689655172413s" keyTimes="0;1" values="1;0" attributeName="opacity"></animate>
  </rect>
</g><g transform="rotate(90 50 50)">
  <rect fill="#d7d7d7" height="22" width="7" ry="3.3000000000000003" rx="3.3000000000000003" y="17" x="46.5">
    <animate repeatCount="indefinite" begin="-0.5387931034482758s" dur="0.8620689655172413s" keyTimes="0;1" values="1;0" attributeName="opacity"></animate>
  </rect>
</g><g transform="rotate(135 50 50)">
  <rect fill="#d7d7d7" height="22" width="7" ry="3.3000000000000003" rx="3.3000000000000003" y="17" x="46.5">
    <animate repeatCount="indefinite" begin="-0.43103448275862066s" dur="0.8620689655172413s" keyTimes="0;1" values="1;0" attributeName="opacity"></animate>
  </rect>
</g><g transform="rotate(180 50 50)">
  <rect fill="#d7d7d7" height="22" width="7" ry="3.3000000000000003" rx="3.3000000000000003" y="17" x="46.5">
    <animate repeatCount="indefinite" begin="-0.32327586206896547s" dur="0.8620689655172413s" keyTimes="0;1" values="1;0" attributeName="opacity"></animate>
  </rect>
</g><g transform="rotate(225 50 50)">
  <rect fill="#d7d7d7" height="22" width="7" ry="3.3000000000000003" rx="3.3000000000000003" y="17" x="46.5">
    <animate repeatCount="indefinite" begin="-0.21551724137931033s" dur="0.8620689655172413s" keyTimes="0;1" values="1;0" attributeName="opacity"></animate>
  </rect>
</g><g transform="rotate(270 50 50)">
  <rect fill="#d7d7d7" height="22" width="7" ry="3.3000000000000003" rx="3.3000000000000003" y="17" x="46.5">
    <animate repeatCount="indefinite" begin="-0.10775862068965517s" dur="0.8620689655172413s" keyTimes="0;1" values="1;0" attributeName="opacity"></animate>
  </rect>
</g><g transform="rotate(315 50 50)">
  <rect fill="#d7d7d7" height="22" width="7" ry="3.3000000000000003" rx="3.3000000000000003" y="17" x="46.5">
    <animate repeatCount="indefinite" begin="0s" dur="0.8620689655172413s" keyTimes="0;1" values="1;0" attributeName="opacity"></animate>
  </rect>
</g><g></g></g><!-- [ldio] generated by https://loading.io --></svg>